<?xml version="1.0" standalone="no"?>
<!DOCTYPE svg PUBLIC "-//W3C//DTD SVG 20010904//EN"
 "http://www.w3.org/TR/2001/REC-SVG-20010904/DTD/svg10.dtd">
<svg version="1.0" xmlns="http://www.w3.org/2000/svg"
 width="500.000000pt" height="500.000000pt" viewBox="0 0 500.000000 500.000000"
 preserveAspectRatio="xMidYMid meet">

<g transform="translate(0.000000,500.000000) scale(0.100000,-0.100000)"
fill="#000000" stroke="none">
<path d="M0 2500 l0 -2500 2500 0 2500 0 0 2500 0 2500 -1237 0 -1238 0 0
-187 c0 -115 -4 -190 -10 -193 -6 -3 -11 63 -13 188 l-2 192 -1250 0 -1250 0
0 -2500z m3224 2202 c7 -12 -30 -136 -42 -140 -16 -5 -15 21 4 90 16 54 26 69
38 50z m-1375 -94 c21 -58 22 -68 7 -68 -16 0 -41 64 -31 80 9 15 15 12 24
-12z m681 -204 c0 -104 -2 -124 -15 -124 -13 0 -15 20 -15 123 0 68 3 127 6
130 18 18 24 -15 24 -129z m620 19 c0 -9 -14 -70 -31 -135 -32 -118 -32 -119
-12 -141 34 -38 53 -75 53 -102 0 -15 -20 -74 -45 -132 -25 -59 -44 -111 -42
-116 2 -6 38 38 81 97 71 98 77 110 67 132 -14 31 -14 30 5 48 20 20 104 21
169 2 50 -16 95 -50 95 -74 0 -10 6 -12 18 -7 9 4 36 10 60 12 40 5 46 10 74
59 32 58 43 70 53 55 3 -6 -9 -36 -26 -67 l-32 -56 26 -21 c29 -25 67 -96 67
-127 0 -17 4 -19 28 -13 15 5 56 8 92 8 75 -1 170 -39 233 -95 l38 -33 32 32
c18 17 38 31 45 31 22 0 12 -26 -22 -59 l-35 -34 25 -46 c30 -57 30 -89 1
-132 -40 -60 -95 -73 -182 -43 -37 12 -49 13 -61 3 -13 -11 -10 -14 18 -23 23
-8 33 -17 33 -31 0 -11 8 -23 17 -27 25 -10 13 -33 -29 -59 -56 -35 -136 -31
-218 11 -173 88 -234 209 -170 335 27 54 28 51 -36 85 -19 10 -41 31 -48 46
-14 31 -9 36 -95 -82 -66 -92 -77 -122 -53 -143 11 -8 21 2 47 49 19 33 40 60
47 60 7 0 13 -3 13 -7 0 -3 -56 -103 -124 -222 -69 -119 -128 -223 -131 -232
-5 -12 2 -20 27 -28 18 -6 82 -39 141 -72 l109 -61 98 97 c55 53 104 94 110
90 16 -10 -1 -32 -89 -120 -45 -44 -81 -82 -81 -86 0 -3 19 -19 43 -34 23 -16
87 -62 141 -103 77 -58 103 -72 115 -65 9 5 101 59 204 118 130 75 191 105
198 98 7 -7 -33 -36 -133 -93 -79 -46 -169 -98 -201 -118 l-59 -35 29 -27 c15
-14 83 -80 150 -145 l122 -118 173 47 c185 50 202 53 196 34 -4 -10 -331 -106
-367 -108 -7 0 -75 60 -150 133 -445 432 -940 683 -1381 700 -285 11 -534 -45
-815 -182 -278 -137 -516 -312 -764 -560 l-94 -95 -111 29 c-114 29 -132 37
-122 53 3 5 52 -4 115 -21 l110 -30 53 54 c29 30 97 96 151 146 l97 91 -197
114 c-177 102 -227 138 -193 138 6 0 101 -52 210 -115 110 -63 202 -115 204
-115 3 0 47 33 98 73 51 39 114 86 140 102 27 17 48 32 48 35 0 3 -70 75 -155
160 -130 130 -155 151 -161 134 -32 -95 -88 -158 -178 -200 -141 -66 -311 7
-391 169 -87 177 -66 341 56 451 47 42 122 76 169 76 9 0 24 18 35 42 26 54
64 83 99 74 20 -5 33 -20 50 -59 36 -78 68 -196 62 -223 -9 -36 -49 -41 -110
-14 -79 35 -92 35 -120 7 -21 -21 -26 -36 -26 -75 0 -95 51 -222 99 -247 27
-13 31 -13 54 5 27 21 41 57 51 126 5 38 3 43 -44 89 -46 45 -62 75 -42 75 4
0 30 -22 56 -49 42 -42 52 -48 69 -40 30 17 66 2 89 -36 23 -41 31 -45 18 -11
-5 13 -14 70 -20 127 -15 139 -16 142 -42 154 -56 24 -9 98 95 150 59 29 107
32 142 9 24 -16 25 -16 25 10 0 15 -27 74 -60 131 -33 57 -60 109 -60 115 0
29 30 -5 81 -94 31 -53 59 -100 63 -103 3 -3 21 6 41 21 78 60 166 74 201 34
45 -51 55 -81 68 -189 8 -74 17 -114 27 -119 18 -12 23 19 39 269 l13 193 -24
18 c-35 27 -18 66 46 99 27 14 51 29 53 34 4 8 124 10 146 1 24 -9 66 -101 66
-144 l0 -38 43 5 c35 5 51 15 92 59 55 58 86 74 146 74 34 0 42 -4 64 -40 14
-22 25 -44 25 -50 0 -5 5 -10 10 -10 6 0 19 -9 30 -20 18 -18 22 -18 56 -4 49
21 173 20 214 -1 17 -9 36 -27 42 -40 9 -20 13 -22 25 -10 22 22 90 37 154 33
l58 -3 21 80 c41 152 51 185 61 185 5 0 9 -8 9 -17z m-1914 -100 c16 -21 18
-53 4 -53 -12 0 -30 33 -30 54 0 21 10 20 26 -1z m3353 -1057 c-14 -14 -286
-166 -297 -166 -34 0 5 29 139 106 89 51 148 79 153 74 5 -5 8 -12 5 -14z
m-3976 -70 c127 -72 164 -102 119 -94 -33 6 -282 153 -282 166 0 20 12 14 163
-72z m2008 -76 c309 -32 606 -158 918 -392 169 -127 368 -316 507 -483 95
-115 117 -150 110 -178 -9 -36 -157 -210 -300 -352 -355 -353 -694 -556 -1076
-646 -128 -31 -392 -33 -519 -5 -327 71 -660 254 -962 529 -224 204 -429 437
-429 487 0 50 235 321 420 484 215 190 364 293 565 392 230 112 366 149 646
173 9 0 63 -4 120 -9z m-2504 -381 c82 -22 106 -35 82 -44 -20 -7 -182 39
-187 53 -5 17 17 15 105 -9z m4873 6 c0 -8 -16 -19 -37 -24 -49 -14 -53 -14
-53 3 0 8 17 18 38 24 52 14 52 14 52 -3z m-162 -47 c-4 -11 -233 -78 -266
-78 -8 0 -12 5 -10 12 4 12 213 75 256 77 14 1 22 -4 20 -11z m-4230 -93 c3
-3 1 -9 -4 -14 -7 -7 -210 42 -222 54 -2 2 -1 8 2 14 6 9 210 -40 224 -54z
m765 -1339 c143 -107 253 -175 397 -247 151 -75 224 -103 361 -138 515 -132
1024 -5 1539 382 115 87 130 96 130 76 0 -8 -46 -48 -103 -90 -320 -239 -597
-368 -912 -427 -140 -25 -408 -23 -552 6 -216 43 -473 148 -678 277 -123 77
-316 225 -309 236 3 5 8 9 10 9 3 0 56 -38 117 -84z m2540 -107 c50 -23 63
-68 98 -339 32 -246 34 -256 61 -283 15 -16 28 -35 28 -43 0 -27 -47 -59 -169
-112 -102 -45 -124 -51 -142 -42 -17 10 -20 18 -15 43 4 18 9 46 11 62 3 17
-10 136 -28 265 -32 233 -32 235 -59 248 -67 32 -4 132 117 188 57 27 65 28
98 13z m-2486 -229 c248 -98 281 -114 297 -141 12 -20 16 -41 12 -60 -5 -28
-4 -29 30 -29 49 0 102 -25 115 -53 l11 -25 45 20 c47 21 89 18 128 -8 32 -21
65 -87 65 -128 0 -137 -170 -186 -227 -66 l-20 43 -62 -117 -62 -116 18 -30
c22 -38 9 -64 -36 -68 -35 -4 -271 42 -301 58 -37 20 -22 68 32 102 17 11 51
64 92 141 36 68 66 126 66 129 0 2 -15 2 -33 0 -43 -5 -87 29 -87 67 0 40 -11
91 -20 91 -4 0 -65 -75 -136 -167 -99 -130 -129 -175 -130 -201 -2 -41 -20
-62 -51 -62 -31 0 -252 86 -275 107 -35 31 -10 80 52 106 27 11 63 50 152 168
64 84 115 155 113 157 -2 2 -32 -10 -67 -27 -34 -17 -75 -31 -89 -31 -35 0
-79 36 -79 64 0 48 107 186 145 186 13 0 149 -50 302 -110z m2223 -125 c80
-41 115 -156 68 -225 -30 -44 -87 -82 -163 -110 l-60 -21 51 4 c36 3 64 13 97
35 25 18 49 32 53 32 17 0 33 -38 34 -78 0 -87 -66 -165 -168 -198 -151 -47
-272 0 -317 124 l-13 37 -17 -40 c-30 -70 -103 -163 -162 -205 -150 -107 -335
-87 -366 40 -3 14 2 83 12 153 17 123 17 128 -1 144 -22 20 -23 47 -2 83 24
39 67 61 134 67 67 6 99 -8 129 -58 l18 -30 27 54 c27 56 56 77 104 77 41 0
85 -32 108 -79 l21 -42 17 45 c23 60 86 129 142 156 98 48 202 62 254 35z
m-1115 -205 c59 -30 104 -89 112 -148 4 -27 -2 -64 -16 -112 l-22 -71 21 -34
c17 -27 18 -38 9 -61 -15 -41 -38 -64 -84 -85 -63 -29 -148 -20 -191 20 -20
18 -21 18 -64 -5 -93 -50 -216 -19 -255 62 -36 76 9 195 90 238 22 11 41 21
42 22 2 0 -2 14 -9 30 -14 39 -6 71 29 112 41 48 91 63 198 59 72 -2 101 -8
140 -27z"/>
<path d="M1933 4325 c-9 -24 1 -27 52 -14 32 8 42 14 33 20 -23 15 -78 10 -85
-6z"/>
<path d="M1865 4308 c-65 -35 -70 -40 -51 -53 14 -11 23 -9 56 12 23 16 36 31
33 39 -6 17 -12 17 -38 2z"/>
<path d="M2324 4276 c-17 -8 -50 -36 -73 -64 -36 -43 -48 -50 -87 -55 -53 -6
-61 -11 -45 -31 9 -10 18 -12 29 -6 10 5 33 11 53 15 26 4 49 20 87 60 31 33
65 58 84 63 18 4 32 12 31 18 -4 15 -45 15 -79 0z"/>
<path d="M1846 4169 c-13 -65 -37 -486 -28 -509 9 -23 10 -22 16 20 17 130 37
493 27 503 -7 7 -11 2 -15 -14z"/>
<path d="M2465 4170 c-3 -5 1 -10 9 -10 9 0 16 5 16 10 0 6 -4 10 -9 10 -6 0
-13 -4 -16 -10z"/>
<path d="M2583 4170 c-23 -9 -30 -25 -15 -34 5 -3 32 2 61 10 29 9 74 14 101
12 33 -2 46 0 39 7 -13 13 -158 17 -186 5z"/>
<path d="M2912 4140 c-42 -10 -48 -16 -33 -34 10 -12 16 -12 39 0 15 8 48 14
74 14 48 0 71 13 42 24 -20 8 -80 6 -122 -4z"/>
<path d="M2532 4094 c-7 -8 -30 -17 -52 -20 -38 -6 -39 -7 -50 -63 -7 -31 -17
-82 -24 -113 -12 -52 -12 -58 3 -58 9 0 21 4 27 8 21 13 64 134 64 180 0 39 2
44 19 39 14 -3 21 2 25 16 7 26 4 29 -12 11z"/>
<path d="M2090 4084 c0 -12 -5 -81 -11 -154 l-11 -133 63 -234 c61 -230 63
-234 86 -228 44 11 167 24 226 25 l57 0 0 190 c0 105 -2 190 -5 190 -3 0 -25
-15 -49 -34 -84 -64 -192 -72 -281 -19 -79 47 -85 74 -50 234 l29 130 -27 27
c-25 25 -27 25 -27 6z"/>
<path d="M2557 4030 c-18 -44 -27 -83 -25 -106 3 -35 5 -33 42 55 34 79 37 94
25 106 -12 12 -18 4 -42 -55z"/>
<path d="M2851 4064 c0 -11 3 -14 6 -6 3 7 2 16 -1 19 -3 4 -6 -2 -5 -13z"/>
<path d="M2846 3950 c-27 -61 -57 -115 -67 -121 -26 -14 -24 -29 4 -29 33 0
47 20 96 134 35 83 40 102 28 113 -11 11 -21 -4 -61 -97z"/>
<path d="M3258 4055 c-3 -4 -4 -21 -2 -38 5 -28 -6 -48 -78 -147 -61 -84 -84
-124 -85 -149 -2 -33 3 -27 78 75 116 156 119 162 106 191 -16 36 3 48 76 46
43 -1 57 1 45 8 -21 12 -131 23 -140 14z"/>
<path d="M1535 4028 c-48 -25 -85 -57 -85 -74 0 -26 21 -25 53 3 29 25 77 50
132 68 16 5 17 8 5 15 -24 15 -62 11 -105 -12z"/>
<path d="M2148 3915 c-23 -103 -26 -130 -16 -152 l12 -28 3 25 c2 14 15 74 29
134 22 99 24 146 6 146 -4 0 -20 -56 -34 -125z"/>
<path d="M3543 3973 c-15 -3 -23 -12 -23 -24 0 -10 2 -19 5 -19 14 0 55 25 59
36 5 14 0 15 -41 7z"/>
<path d="M3618 3953 c7 -3 16 -2 19 1 4 3 -2 6 -13 5 -11 0 -14 -3 -6 -6z"/>
<path d="M951 3911 c-11 -11 -25 -38 -32 -60 -10 -34 -17 -41 -38 -42 -14 0
-34 -4 -44 -8 -34 -13 3 -29 51 -22 40 5 45 9 58 46 7 22 23 48 35 57 12 11
19 24 15 33 -7 20 -22 19 -45 -4z"/>
<path d="M1260 3909 c-57 -26 -110 -66 -110 -84 0 -24 24 -23 54 2 35 29 119
73 141 73 20 0 19 16 -1 24 -24 9 -35 7 -84 -15z"/>
<path d="M1418 3878 c13 -21 23 -61 28 -108 9 -99 22 -143 23 -80 1 85 -18
194 -36 208 -29 21 -35 13 -15 -20z"/>
<path d="M2486 3856 c-3 -13 -2 -35 3 -48 8 -19 10 -15 10 25 1 52 -4 60 -13
23z"/>
<path d="M3510 3848 c0 -7 5 -20 10 -28 8 -12 10 -11 10 7 0 12 -4 25 -10 28
-5 3 -10 0 -10 -7z"/>
<path d="M3785 3811 c-40 -10 -75 -29 -75 -41 0 -5 -18 -21 -41 -35 -28 -18
-48 -42 -65 -78 -27 -58 -30 -98 -9 -142 l13 -30 1 49 c1 64 31 124 87 176 69
63 123 83 208 78 65 -5 69 -4 40 8 -41 17 -121 25 -159 15z"/>
<path d="M1494 3785 c6 -32 9 -86 7 -122 -1 -12 -10 -31 -21 -41 -19 -17 -19
-20 -5 -32 13 -11 19 -9 36 9 19 20 20 30 14 101 -4 44 -13 87 -21 97 -14 17
-15 16 -10 -12z"/>
<path d="M2395 3801 c-10 -18 17 -23 33 -7 15 15 15 16 -5 16 -12 0 -24 -4
-28 -9z"/>
<path d="M754 3771 c-46 -29 -91 -82 -116 -136 -26 -58 -29 -164 -6 -227 12
-35 13 -32 13 65 0 86 3 108 22 143 24 45 71 97 117 129 24 17 26 22 14 32
-11 10 -20 8 -44 -6z"/>
<path d="M1203 3710 c4 -25 9 -72 12 -105 6 -56 23 -120 31 -112 8 8 -25 240
-36 250 -10 9 -11 2 -7 -33z"/>
<path d="M2530 3535 l0 -175 63 -1 c34 0 100 -6 147 -13 47 -8 88 -11 91 -7 9
8 84 290 78 293 -2 2 -32 17 -66 35 -60 31 -64 32 -97 18 -50 -21 -120 -19
-166 5 -22 11 -42 20 -45 20 -3 0 -5 -79 -5 -175z"/>
<path d="M3949 3654 c-13 -14 -37 -32 -52 -40 -32 -17 -27 -34 10 -34 29 0
109 73 98 90 -10 17 -30 11 -56 -16z"/>
<path d="M2973 3633 c-18 -2 -33 -6 -33 -8 0 -4 -65 -248 -76 -286 -4 -13 7
-20 48 -29 29 -7 95 -28 147 -46 52 -19 97 -32 100 -28 3 3 44 71 91 152 l85
146 -140 49 c-150 52 -172 57 -222 50z"/>
<path d="M1980 3604 c-52 -13 -116 -26 -142 -28 -33 -3 -58 -12 -79 -30 -17
-14 -35 -26 -40 -26 -5 0 -9 -4 -9 -9 0 -7 141 -259 156 -280 2 -2 27 6 56 17
29 12 94 33 143 48 50 14 92 28 94 30 5 5 -73 304 -79 303 -3 -1 -48 -12 -100
-25z"/>
<path d="M3817 3520 c-3 -13 2 -25 16 -35 27 -19 41 -19 57 0 10 12 6 18 -22
35 -41 25 -44 25 -51 0z"/>
<path d="M1546 3501 c-22 -42 -80 -89 -126 -101 -54 -15 -98 -5 -159 35 l-51
34 0 -32 c0 -28 21 -53 170 -202 l169 -169 48 27 c36 21 188 98 241 123 2 1
-34 65 -78 143 -73 125 -85 141 -109 141 -14 0 -39 7 -55 15 -36 19 -33 20
-50 -14z"/>
<path d="M1112 3504 c9 -9 21 -13 27 -10 20 13 11 26 -16 26 -25 0 -26 -1 -11
-16z"/>
<path d="M1087 3463 c-3 -10 -8 -35 -12 -55 -6 -41 -62 -108 -89 -108 -10 0
-14 -4 -11 -10 12 -19 65 -11 90 14 25 26 45 83 45 133 0 36 -16 53 -23 26z"/>
<path d="M3887 3419 c14 -12 53 -21 53 -11 0 5 -14 12 -30 14 -17 3 -27 1 -23
-3z"/>
<path d="M2356 3103 c-22 -3 -35 -8 -29 -11 7 -4 -5 -8 -25 -8 -54 -1 -124
-23 -116 -36 4 -7 3 -8 -5 -4 -15 9 -53 -3 -46 -15 3 -5 0 -6 -8 -4 -22 9 -67
-16 -189 -108 -166 -124 -273 -250 -345 -406 -80 -174 -110 -361 -86 -547 29
-229 118 -416 277 -583 73 -76 219 -191 243 -191 7 0 13 -5 13 -11 0 -5 4 -8
9 -5 5 4 11 2 13 -2 3 -8 126 -53 236 -87 68 -20 142 -34 142 -26 0 3 50 5
111 3 73 -2 115 1 124 8 8 7 20 8 26 4 7 -4 9 -3 6 3 -7 11 101 36 116 26 6
-4 7 -1 2 7 -6 10 -3 12 13 8 12 -4 20 -2 17 2 -7 12 32 23 46 14 7 -4 9 -3 6
3 -4 6 0 14 9 17 9 3 12 2 8 -5 -3 -6 12 -1 34 10 22 11 43 25 47 31 3 5 15
10 26 10 13 0 18 4 13 12 -4 7 -3 8 4 4 7 -4 12 -3 12 3 0 13 42 41 67 46 10
1 17 8 15 15 -1 6 2 9 7 5 9 -5 56 33 56 46 0 11 81 95 113 118 17 12 32 27
32 34 0 6 -7 2 -15 -9 -8 -10 -14 -14 -15 -9 0 6 10 21 23 35 12 14 18 20 13
13 -5 -8 -6 -16 -3 -19 9 -9 67 89 62 104 -3 8 0 10 7 6 8 -5 9 -2 5 10 -4 10
-3 15 3 11 10 -6 11 -5 15 30 5 43 27 95 38 88 6 -4 8 0 4 10 -3 10 -3 17 2
17 13 0 32 86 26 118 -4 22 -4 24 4 7 11 -23 12 -11 16 135 1 47 3 108 5 135
3 48 3 48 10 -20 19 -213 -50 -463 -180 -656 -58 -84 -168 -194 -259 -257 -41
-29 -71 -52 -67 -52 4 0 53 22 109 48 206 98 465 290 677 502 139 138 300 326
300 350 0 29 -132 183 -294 345 -244 243 -428 382 -665 502 -68 35 -128 63
-135 63 -6 0 18 -19 54 -42 78 -51 188 -153 245 -228 56 -74 94 -142 88 -159
-4 -8 -1 -11 6 -7 7 5 9 1 4 -10 -4 -11 -2 -15 4 -11 13 8 26 -20 16 -35 -3
-6 -1 -8 5 -4 13 8 26 -29 16 -45 -4 -8 -3 -9 4 -5 11 6 33 -55 47 -129 4 -24
3 -26 -4 -10 l-10 20 -1 -20 c-1 -15 -4 -12 -11 10 -5 17 -7 41 -4 53 3 13 2
21 -3 18 -9 -5 -76 154 -78 185 -2 22 -36 79 -45 74 -4 -3 -13 3 -20 12 -10
12 -10 14 -1 9 6 -4 12 -3 12 3 0 10 -19 26 -32 26 -8 0 -89 90 -147 163 -18
24 -39 41 -45 39 -7 -3 -20 1 -31 9 -14 10 -15 14 -4 14 12 0 12 2 -1 9 -8 6
-18 8 -22 5 -13 -8 -49 16 -42 28 4 6 1 9 -7 6 -14 -5 -69 17 -69 28 0 2 14
-2 30 -11 17 -9 30 -13 30 -10 0 9 -77 44 -83 38 -8 -7 -67 17 -67 27 0 11
-110 46 -184 59 -57 10 -246 12 -330 4z m124 -67 c0 -31 18 -78 33 -88 17 -11
37 -10 37 3 0 5 -4 8 -9 5 -18 -12 -42 21 -44 62 l-3 42 43 0 c24 0 43 -4 43
-10 0 -5 7 -10 15 -10 8 0 15 4 15 8 0 10 96 -2 149 -18 19 -5 47 -23 62 -40
15 -16 34 -30 41 -30 7 0 2 9 -11 19 l-24 19 24 -3 c35 -5 99 -34 99 -45 0
-15 -8 -12 -43 11 l-32 22 25 -24 c37 -36 72 -59 90 -58 13 0 13 1 0 6 -8 4
-20 12 -27 19 -20 20 5 29 26 10 10 -9 21 -16 26 -16 11 0 115 -69 115 -77 0
-3 -6 -1 -13 5 -10 8 -13 6 -13 -7 0 -15 5 -17 22 -11 17 7 27 3 48 -19 29
-31 35 -51 9 -30 -17 13 -17 12 -4 -4 13 -16 13 -20 0 -28 -12 -7 -12 -9 0 -9
8 0 24 -8 35 -17 20 -17 20 -17 7 0 -7 9 -10 17 -5 17 5 0 2 4 -6 10 -8 5 -11
12 -7 16 12 13 30 -13 31 -45 1 -22 4 -27 13 -19 15 12 47 2 38 -12 -4 -6 -10
-8 -15 -5 -5 3 -12 0 -15 -6 -4 -6 2 -13 14 -16 11 -3 19 -9 16 -13 -3 -5 3
-6 14 -3 12 3 25 -5 39 -25 39 -54 101 -189 129 -278 24 -82 27 -103 27 -259
0 -132 -4 -185 -17 -235 -29 -106 -68 -201 -79 -193 -6 3 -8 2 -5 -4 18 -28
-170 -292 -197 -276 -6 3 -8 3 -4 -1 7 -9 -58 -68 -125 -114 -116 -80 -294
-145 -446 -162 -77 -9 -246 -4 -264 7 -5 3 -23 7 -40 10 -18 2 -47 13 -65 24
-18 10 -30 15 -27 9 8 -13 7 -13 -60 10 -176 61 -370 217 -477 385 -277 436
-183 982 227 1312 97 78 292 167 384 176 22 2 43 6 46 9 9 8 55 -37 55 -53 0
-11 2 -11 10 1 6 10 5 17 -5 23 -8 4 -12 14 -9 22 5 12 10 10 24 -8 l18 -22
-5 28 c-5 24 -2 27 21 27 21 0 26 -5 26 -24z m1057 -803 c-3 -10 -5 -2 -5 17
0 19 2 27 5 18 2 -10 2 -26 0 -35z m-20 15 c-3 -8 -6 -5 -6 6 -1 11 2 17 5 13
3 -3 4 -12 1 -19z m10 -90 c-3 -8 -6 -5 -6 6 -1 11 2 17 5 13 3 -3 4 -12 1
-19z m-864 -1085 c-7 -2 -21 -2 -30 0 -10 3 -4 5 12 5 17 0 24 -2 18 -5z"/>
<path d="M2553 2995 c-3 -9 -3 -18 -1 -21 3 -3 8 4 11 16 6 23 -1 27 -10 5z"/>
<path d="M2408 2883 c6 -2 9 -10 6 -15 -4 -7 -2 -8 5 -4 13 9 5 26 -12 25 -9
0 -8 -2 1 -6z"/>
<path d="M3076 2793 c-6 -14 -5 -15 5 -6 7 7 10 15 7 18 -3 3 -9 -2 -12 -12z"/>
<path d="M3140 2801 c0 -6 4 -13 10 -16 6 -3 7 1 4 9 -7 18 -14 21 -14 7z"/>
<path d="M3120 2786 c0 -2 8 -10 18 -17 15 -13 16 -12 3 4 -13 16 -21 21 -21
13z"/>
<path d="M2106 2762 c-3 -5 1 -9 9 -9 8 0 12 4 9 9 -3 4 -7 8 -9 8 -2 0 -6 -4
-9 -8z"/>
<path d="M2320 2730 c0 -5 5 -10 11 -10 5 0 7 5 4 10 -3 6 -8 10 -11 10 -2 0
-4 -4 -4 -10z"/>
<path d="M1697 2538 c-9 -31 -2 -33 11 -3 6 14 8 25 3 25 -5 0 -11 -10 -14
-22z"/>
<path d="M1675 2473 c-3 -14 -4 -28 0 -31 3 -3 5 2 5 11 0 8 6 17 14 19 12 2
12 5 1 15 -10 10 -14 7 -20 -14z"/>
<path d="M2047 2493 c-4 -3 -7 -16 -6 -27 0 -19 1 -19 10 3 10 24 8 36 -4 24z"/>
<path d="M2033 2405 c0 -22 2 -30 4 -17 2 12 2 30 0 40 -3 9 -5 -1 -4 -23z"/>
<path d="M1660 2379 c0 -5 5 -7 10 -4 6 3 10 8 10 11 0 2 -4 4 -10 4 -5 0 -10
-5 -10 -11z"/>
<path d="M2010 2329 c0 -5 5 -7 10 -4 6 3 10 8 10 11 0 2 -4 4 -10 4 -5 0 -10
-5 -10 -11z"/>
<path d="M1641 2294 c0 -11 3 -14 6 -6 3 7 2 16 -1 19 -3 4 -6 -2 -5 -13z"/>
<path d="M1808 2193 c7 -3 16 -2 19 1 4 3 -2 6 -13 5 -11 0 -14 -3 -6 -6z"/>
<path d="M3385 2110 c-5 -8 -4 -11 3 -6 6 3 15 -6 20 -21 6 -16 11 -21 11 -12
1 8 -5 23 -12 34 -11 14 -16 15 -22 5z"/>
<path d="M3040 2080 c-11 -29 -6 -61 12 -77 21 -18 21 -18 8 4 -12 18 -12 24
0 37 7 9 10 19 6 23 -3 3 -6 0 -7 -8 0 -8 -4 -6 -9 6 -5 11 -9 18 -10 15z"/>
<path d="M3403 2035 c-7 -8 -12 -27 -12 -42 1 -17 3 -21 6 -10 2 9 8 17 12 17
5 0 9 11 9 25 0 14 -1 25 -2 25 0 -1 -7 -7 -13 -15z"/>
<path d="M3108 2033 c7 -3 16 -2 19 1 4 3 -2 6 -13 5 -11 0 -14 -3 -6 -6z"/>
<path d="M3465 2030 c-19 -8 -19 -9 3 -9 12 -1 22 4 22 9 0 6 -1 10 -2 9 -2 0
-12 -4 -23 -9z"/>
<path d="M1640 2000 c0 -5 5 -10 11 -10 5 0 7 5 4 10 -3 6 -8 10 -11 10 -2 0
-4 -4 -4 -10z"/>
<path d="M3160 2000 c-9 -6 -10 -10 -3 -10 6 0 15 5 18 10 8 12 4 12 -15 0z"/>
<path d="M3221 1974 c0 -11 3 -14 6 -6 3 7 2 16 -1 19 -3 4 -6 -2 -5 -13z"/>
<path d="M3260 1980 c0 -5 5 -10 10 -10 6 0 10 5 10 10 0 6 -4 10 -10 10 -5 0
-10 -4 -10 -10z"/>
<path d="M3150 1959 c0 -5 5 -7 10 -4 6 3 10 8 10 11 0 2 -4 4 -10 4 -5 0 -10
-5 -10 -11z"/>
<path d="M1930 1956 c0 -2 7 -9 15 -16 12 -10 15 -10 15 4 0 9 -7 16 -15 16
-8 0 -15 -2 -15 -4z"/>
<path d="M3115 1950 c3 -5 8 -10 11 -10 2 0 4 5 4 10 0 6 -5 10 -11 10 -5 0
-7 -4 -4 -10z"/>
<path d="M3381 1863 c0 -13 -5 -23 -11 -23 -5 0 -7 -7 -3 -16 9 -25 25 0 20
32 -3 22 -4 24 -6 7z"/>
<path d="M3411 1864 c0 -11 3 -14 6 -6 3 7 2 16 -1 19 -3 4 -6 -2 -5 -13z"/>
<path d="M2991 1754 c0 -11 3 -14 6 -6 3 7 2 16 -1 19 -3 4 -6 -2 -5 -13z"/>
<path d="M3356 1741 c-3 -5 -8 -26 -12 -47 -5 -36 -4 -37 9 -19 8 10 13 25 10
32 -3 7 0 20 7 28 8 10 9 15 2 15 -6 0 -13 -4 -16 -9z"/>
<path d="M2077 1719 c4 -13 8 -18 11 -10 2 7 -1 18 -6 23 -8 8 -9 4 -5 -13z"/>
<path d="M2466 1694 c-5 -14 -4 -15 9 -4 17 14 19 20 6 20 -5 0 -12 -7 -15
-16z"/>
<path d="M2970 1679 c0 -5 5 -7 10 -4 6 3 10 8 10 11 0 2 -4 4 -10 4 -5 0 -10
-5 -10 -11z"/>
<path d="M2001 1644 c0 -11 3 -14 6 -6 3 7 2 16 -1 19 -3 4 -6 -2 -5 -13z"/>
<path d="M3326 1635 c-3 -8 -1 -15 4 -15 6 0 10 7 10 15 0 8 -2 15 -4 15 -2 0
-6 -7 -10 -15z"/>
<path d="M3270 1500 c-6 -11 -8 -20 -6 -20 3 0 10 9 16 20 6 11 8 20 6 20 -3
0 -10 -9 -16 -20z"/>
<path d="M3240 1450 c-6 -11 -8 -20 -6 -20 3 0 10 9 16 20 6 11 8 20 6 20 -3
0 -10 -9 -16 -20z"/>
<path d="M1865 2931 c-279 -137 -571 -370 -812 -645 -62 -72 -125 -147 -139
-168 l-27 -38 79 -97 c99 -124 353 -379 464 -467 124 -99 300 -214 418 -275
57 -29 105 -51 108 -49 2 3 -25 25 -59 51 -78 57 -200 183 -250 260 -58 88
-115 217 -144 325 -23 84 -26 118 -26 257 -1 143 2 170 26 260 66 246 237 482
440 608 41 26 54 37 44 37 -2 0 -57 -27 -122 -59z"/>
<path d="M3237 2805 c28 -33 61 -69 74 -80 33 -29 -53 74 -92 110 -21 19 -14
7 18 -30z"/>
<path d="M3501 2344 c0 -11 3 -14 6 -6 3 7 2 16 -1 19 -3 4 -6 -2 -5 -13z"/>
<path d="M3260 1383 l-55 -58 58 55 c53 50 62 60 54 60 -1 0 -27 -26 -57 -57z"/>
<path d="M3705 1000 c3 -5 11 -10 16 -10 6 0 7 5 4 10 -3 6 -11 10 -16 10 -6
0 -7 -4 -4 -10z"/>
<path d="M3905 434 c-60 -29 -99 -51 -86 -48 35 9 228 102 211 102 -8 1 -64
-24 -125 -54z"/>
<path d="M1125 879 c-40 -20 -69 -28 -87 -25 -33 6 -36 1 -7 -14 16 -9 33 -6
87 20 36 17 78 30 92 29 39 -2 47 2 25 11 -31 13 -46 11 -110 -21z"/>
<path d="M1466 801 c-3 -5 4 -11 16 -14 30 -8 35 -1 9 12 -11 6 -22 7 -25 2z"/>
<path d="M1554 636 c23 -19 32 -20 41 -6 3 6 0 10 -9 10 -8 0 -23 3 -33 6 -16
5 -16 4 1 -10z"/>
<path d="M1870 536 c0 -2 7 -6 15 -10 8 -3 15 -1 15 4 0 6 -7 10 -15 10 -8 0
-15 -2 -15 -4z"/>
<path d="M920 446 c0 -5 227 -96 240 -96 6 0 10 5 10 10 0 6 -5 10 -12 10 -7
0 -58 18 -114 40 -96 37 -124 46 -124 36z"/>
<path d="M2036 439 c-10 -7 -35 -8 -60 -5 -48 8 -39 -10 10 -20 22 -4 36 0 54
15 27 22 26 27 -4 10z"/>
<path d="M1463 244 c6 -6 239 -54 262 -54 6 0 6 3 0 9 -6 5 -59 19 -118 30
-110 21 -155 26 -144 15z"/>
<path d="M3455 710 c-3 -5 1 -10 9 -10 9 0 16 5 16 10 0 6 -4 10 -9 10 -6 0
-13 -4 -16 -10z"/>
<path d="M3463 605 c0 -22 2 -30 4 -17 2 12 2 30 0 40 -3 9 -5 -1 -4 -23z"/>
<path d="M3631 575 c-19 -14 -64 -34 -100 -46 -69 -22 -110 -47 -58 -35 62 15
134 47 167 75 42 36 38 39 -9 6z"/>
<path d="M2976 469 c-9 -29 -28 -190 -22 -196 9 -10 56 26 76 60 24 39 25 60
3 78 -9 8 -24 27 -34 43 -13 21 -20 26 -23 15z"/>
<path d="M3054 451 c20 -22 26 -25 26 -13 0 4 -10 13 -22 21 -23 14 -23 14 -4
-8z"/>
<path d="M3610 335 c-75 -52 -193 -64 -262 -29 -39 20 -35 8 5 -16 64 -40 198
-20 268 40 41 35 37 37 -11 5z"/>
<path d="M3039 224 c-24 -29 -112 -66 -168 -71 -39 -4 -68 0 -95 11 -57 24
-58 10 -1 -15 58 -26 123 -20 194 16 40 20 105 75 89 75 -3 0 -11 -7 -19 -16z"/>
<path d="M2370 560 c0 -8 24 -20 41 -20 6 0 8 4 5 9 -8 12 -46 21 -46 11z"/>
<path d="M2374 453 c-16 -32 -18 -43 -8 -47 8 -3 17 9 24 29 18 54 7 66 -16
18z"/>
<path d="M2214 456 c25 -20 87 -20 112 0 18 15 18 15 -3 9 -32 -9 -74 -9 -103
-1 -24 7 -24 6 -6 -8z"/>
<path d="M2289 329 c-23 -19 -23 -20 -2 -10 12 6 33 11 48 11 15 0 24 4 20 10
-10 16 -41 11 -66 -11z"/>
<path d="M2302 278 c-19 -19 -14 -30 8 -18 11 6 20 15 20 20 0 14 -14 12 -28
-2z"/>
<path d="M2281 164 c-51 -28 -121 -32 -165 -9 -38 20 -44 13 -10 -10 58 -37
139 -29 199 20 37 31 32 30 -24 -1z"/>
<path d="M2540 149 c-42 -23 -88 -24 -135 -5 -19 8 -35 11 -35 7 0 -9 39 -27
82 -37 34 -7 90 10 113 36 21 23 21 23 -25 -1z"/>
</g>
</svg>
