<?xml version="1.0" encoding="utf-8"?>
<!-- Uploaded to SVGRepo https://www.svgrepo.com -->
<!DOCTYPE svg PUBLIC "-//W3C//DTD SVG 1.1//EN" "http://www.w3.org/Graphics/SVG/1.1/DTD/svg11.dtd">
<svg width="1000px" height="1000px" viewBox="0 0 1000 1000" version="1.1" xmlns="http://www.w3.org/2000/svg" xmlns:xlink="http://www.w3.org/1999/xlink" x="0px" y="0px" enable-background="new 0 0 1000 1000" xml:space="preserve">

<g><g transform="translate(0.000000,511.000000) scale(0.100000,-0.100000)"><path d="M3532.2,3776c-32.6-23-32.6-53.7-17.2-473.3c9.6-247.2,13.4-461.8,9.6-475.2c-19.2-57.5-74.7-61.3-164.8-13.4c-107.3,57.5-176.3,61.3-191.6,13.4c-5.8-19.2,28.7-214.6,78.6-435l88.1-402.4l13.4-517.4l13.4-517.4l76.7-216.5c161-444.6,425.4-789.5,735.9-965.8c59.4-32.6,74.7-51.7,67.1-82.4c-5.8-21.1-11.5-57.5-11.5-80.5c0-42.2-7.7-44.1-138-44.1c-367.9-1.9-603.6-88.1-797.2-295.1l-115-124.6l-44.1,47.9c-84.3,90.1-260.6,161-433.1,174.4l-159.1,11.5l-11.5,67.1c-9.6,49.8-5.7,70.9,17.2,82.4c15.3,9.6,74.7,55.6,132.2,101.6c191.6,155.2,331.5,381.3,427.3,684.1l49.8,164.8l-5.8,544.2c-5.7,515.5-7.7,550-47.9,636.2c-84.3,182.1-216.5,299-406.3,358.4c-105.4,32.6-174.4,38.3-536.6,38.3H1748l-105.4,134.1c-57.5,74.7-115,134.1-128.4,134.1c-13.4,0-38.3-21.1-55.6-47.9c-17.2-26.8-44.1-47.9-59.4-47.9c-15.3,0-105.4,65.2-203.1,143.7C939.4,2584,947,2589.7,952.8,2168.1c3.8-193.5,3.8-362.2,1.9-373.7c-3.8-32.6-80.5-30.7-124.6,3.8c-42.2,32.6-118.8,38.3-134.1,11.5c-7.7-9.6,23-174.4,65.2-367.9c72.8-333.4,76.7-366,76.7-680.3c0-323.9,1.9-333.4,63.2-511.7c103.5-299,266.4-527,481-674.5c92-63.2,107.3-82.4,107.3-134.2v-61.3l-187.8-9.6c-199.3-9.6-316.2-47.9-440.8-143.7c-92-70.9-680.3-862.4-724.4-975.4c-30.7-78.6-36.4-145.7-36.4-400.5c0-291.3,1.9-312.4,49.8-413.9c70.9-149.5,170.6-254.9,310.4-323.9l118.8-59.4l9.6,270.2c9.6,256.8,11.5,274,55.6,308.5c61.3,49.8,147.6,46,203.1-11.5c46-44.1,47.9-55.6,47.9-316.2v-268.3h753.1h751.2l55.6-118.8c70.9-153.3,231.9-314.3,392.8-394.7c67.1-34.5,134.1-61.3,149.5-61.3c19.2,0,24.9,67.1,24.9,331.5c0,344.9,7.7,379.4,95.8,448.4c47.9,38.3,180.1,30.7,235.7-13.4c72.8-57.5,90.1-147.6,90.1-492.5V-3577h1406.6h1408.5l5.7,366l5.7,366l63.2,55.6c46,42.2,80.5,55.6,138,55.6c57.5,0,92-13.4,138-55.6l63.2-55.6l5.7-367.9l5.8-367.9l80.5,13.4c132.2,21.1,350.7,134.1,461.8,239.6c61.3,57.5,132.2,153.3,174.4,231.9l69,132.2h757h755v276c0,275.9,0,277.9,49.8,316.2c57.5,44.1,136.1,51.7,182.1,15.3c63.3-47.9,74.7-105.4,74.7-358.4v-253l63.2,13.4c207,42.2,385.2,180.2,477.2,369.9c59.4,118.8,63.2,139.9,69,377.5c9.6,279.8-19.2,435-99.7,559.6c-65.1,103.5-645.8,799.1-712.9,854.7c-116.9,97.7-270.2,149.5-515.5,170.6c-46,5.7-57.5,17.2-69,65.1c-11.5,57.5-3.8,65.2,103.5,143.7c205.1,149.5,358.4,371.8,467.6,678.4l53.7,153.3v565.3v565.3l-63.2,128.4c-72.8,147.5-176.3,249.1-327.7,318.1c-105.4,49.8-118.8,51.7-561.5,57.5l-454.2,7.7L7612,2193.1c-59.4,72.8-115,132.2-124.6,132.2s-32.6-21.1-49.8-47.9s-46-47.9-63.2-47.9s-109.2,65.2-207,143.7c-172.5,141.8-222.3,166.7-239.5,120.7c-5.8-13.4-3.8-174.4,1.9-358.3c5.7-182.1,5.7-341.1,0-350.7c-13.4-23-69-13.4-164.8,24.9c-113.1,46-115,19.2-26.8-379.4c74.7-344.9,78.6-377.5,78.6-688c0-295.1,3.8-339.2,46-463.8c55.6-159.1,122.6-299,201.2-412c70.9-103.5,262.5-285.5,343-327.7c53.7-28.8,63.2-42.1,57.5-93.9l-5.8-61.3L7269-629.7c-231.9-17.2-383.3-82.4-509.7-218.5l-82.4-90.1l-130.3,143.7c-226.1,249.1-421.6,341.1-724.4,341.1h-170.5l-21.1,97.7c-11.5,55.6-19.2,101.6-17.2,103.5c3.8,1.9,49.8,32.6,101.6,67.1c300.9,203.1,519.3,507.8,674.6,940.9l72.8,199.3v766.5c0,757,0,768.5-44.1,875.8c-67.1,164.8-193.6,323.9-329.6,413.9c-205.1,138-241.5,143.7-912.2,155.2l-597.9,11.5l-122.7,153.3c-69,84.3-138,164.8-155.2,178.2c-38.3,32.6-84.3,9.6-115-55.6c-44.1-88.2-90.1-69-350.7,143.7c-134.1,113.1-251,203.1-256.8,203.1C3572.4,3800.9,3551.3,3789.4,3532.2,3776z"/></g></g>
</svg>