<?xml version="1.0" encoding="iso-8859-1"?>
<!-- Generator: Adobe Illustrator 19.0.0, SVG Export Plug-In . SVG Version: 6.00 Build 0)  -->
<svg version="1.1" id="Layer_1" xmlns="http://www.w3.org/2000/svg" xmlns:xlink="http://www.w3.org/1999/xlink" x="0px" y="0px"
	 viewBox="0 0 512 512" style="enable-background:new 0 0 512 512;" xml:space="preserve">
<path style="fill:#B28964;" d="M255.999,83.188c-10.345,0-18.732-8.387-18.732-18.732V18.732C237.267,8.387,245.654,0,255.999,0
	s18.732,8.387,18.732,18.732v45.724C274.73,74.801,266.345,83.188,255.999,83.188z"/>
<path style="fill:#896746;" d="M256.003,0v83.188c10.344-0.002,18.728-8.388,18.728-18.732V18.732
	C274.73,8.388,266.346,0.002,256.003,0z"/>
<path style="fill:#FDBF00;" d="M413.928,392.938H98.069c-15.186,0-24.042-17.169-15.296-29.542l45.434-64.286V173.516
	c0-70.465,57.328-127.791,127.793-127.791s127.791,57.327,127.791,127.791v125.594l45.433,64.286
	C437.987,375.792,429.083,392.938,413.928,392.938z"/>
<path style="fill:#B28964;" d="M255.999,512c-29.138,0-52.843-23.706-52.843-52.843c0-29.138,23.706-52.842,52.843-52.842
	s52.842,23.704,52.842,52.842C308.841,488.294,285.137,512,255.999,512z"/>
<path style="fill:#FF9800;" d="M429.225,363.395l-45.434-64.286V173.516c0-70.464-57.325-127.789-127.788-127.791v347.213h157.926
	C429.083,392.938,437.987,375.792,429.225,363.395z"/>
<path style="fill:#896746;" d="M308.842,459.157c0-29.137-23.703-52.841-52.84-52.842V512
	C285.139,511.997,308.842,488.293,308.842,459.157z"/>
<g>
</g>
<g>
</g>
<g>
</g>
<g>
</g>
<g>
</g>
<g>
</g>
<g>
</g>
<g>
</g>
<g>
</g>
<g>
</g>
<g>
</g>
<g>
</g>
<g>
</g>
<g>
</g>
<g>
</g>
</svg>
