<?xml version="1.0" encoding="iso-8859-1"?>
<!-- Generator: Adobe Illustrator 19.0.0, SVG Export Plug-In . SVG Version: 6.00 Build 0)  -->
<svg version="1.1" id="Layer_1" xmlns="http://www.w3.org/2000/svg" xmlns:xlink="http://www.w3.org/1999/xlink" x="0px" y="0px"
	 viewBox="0 0 484.8 484.8" style="enable-background:new 0 0 484.8 484.8;" xml:space="preserve">
<circle style="fill:#FF9100;" cx="242.4" cy="242.4" r="242.4"/>
<path style="fill:#DD6E12;" d="M484.8,242.4c0,133.6-108,241.6-242.4,241.6C108.8,484,0,376,0,242.4"/>
<polygon style="fill:#EBFFF6;" points="180,242.4 234.4,188 234.4,118.4 110.4,242.4 234.4,366.4 234.4,296.8 "/>
<polyline style="fill:#D6EAE0;" points="110.4,242.4 234.4,366.4 234.4,296.8 180,242.4 234.4,188 "/>
<polygon style="fill:#EBFFF6;" points="284,242.4 338.4,188 338.4,118.4 214.4,242.4 338.4,366.4 338.4,296.8 "/>
<polyline style="fill:#D6EAE0;" points="214.4,242.4 338.4,366.4 338.4,296.8 284,242.4 338.4,188 "/>
<g>
</g>
<g>
</g>
<g>
</g>
<g>
</g>
<g>
</g>
<g>
</g>
<g>
</g>
<g>
</g>
<g>
</g>
<g>
</g>
<g>
</g>
<g>
</g>
<g>
</g>
<g>
</g>
<g>
</g>
</svg>
