<svg version="1.1" id="Uploaded to svgrepo.com" xmlns="http://www.w3.org/2000/svg" xmlns:xlink="http://www.w3.org/1999/xlink" x="0px" y="0px"
	 width="32px" height="32px" viewBox="0 0 32 32" style="enable-background:new 0 0 32 32;" xml:space="preserve">
<style type="text/css">
	.stone_een{fill:#0B1719;}
</style>
<path class="stone_een" d="M10,25h12v6H10V25z M22,1H10v6h12V1z M10,21h12V11H10V21z M28,4v24c0,1.657-1.343,3-3,3h-2v-6
	c0-0.552-0.448-1-1-1H10c-0.552,0-1,0.448-1,1v6H7c-1.657,0-3-1.343-3-3V4c0-1.657,1.343-3,3-3h2v6c0,0.552,0.448,1,1,1h12
	c0.552,0,1-0.448,1-1V1h2C26.657,1,28,2.343,28,4z M8,28c0-0.552-0.448-1-1-1s-1,0.448-1,1c0,0.552,0.448,1,1,1S8,28.552,8,28z
	 M8,24c0-0.552-0.448-1-1-1s-1,0.448-1,1c0,0.552,0.448,1,1,1S8,24.552,8,24z M8,20c0-0.552-0.448-1-1-1s-1,0.448-1,1
	c0,0.552,0.448,1,1,1S8,20.552,8,20z M8,16c0-0.552-0.448-1-1-1s-1,0.448-1,1c0,0.552,0.448,1,1,1S8,16.552,8,16z M8,12
	c0-0.552-0.448-1-1-1s-1,0.448-1,1c0,0.552,0.448,1,1,1S8,12.552,8,12z M8,8c0-0.552-0.448-1-1-1S6,7.448,6,8c0,0.552,0.448,1,1,1
	S8,8.552,8,8z M8,4c0-0.552-0.448-1-1-1S6,3.448,6,4c0,0.552,0.448,1,1,1S8,4.552,8,4z M23,11c0-0.552-0.448-1-1-1H10
	c-0.552,0-1,0.448-1,1v10c0,0.552,0.448,1,1,1h12c0.552,0,1-0.448,1-1V11z M26,28c0-0.552-0.448-1-1-1s-1,0.448-1,1
	c0,0.552,0.448,1,1,1S26,28.552,26,28z M26,24c0-0.552-0.448-1-1-1s-1,0.448-1,1c0,0.552,0.448,1,1,1S26,24.552,26,24z M26,20
	c0-0.552-0.448-1-1-1s-1,0.448-1,1c0,0.552,0.448,1,1,1S26,20.552,26,20z M26,16c0-0.552-0.448-1-1-1s-1,0.448-1,1
	c0,0.552,0.448,1,1,1S26,16.552,26,16z M26,12c0-0.552-0.448-1-1-1s-1,0.448-1,1c0,0.552,0.448,1,1,1S26,12.552,26,12z M26,8
	c0-0.552-0.448-1-1-1s-1,0.448-1,1c0,0.552,0.448,1,1,1S26,8.552,26,8z M26,4c0-0.552-0.448-1-1-1s-1,0.448-1,1c0,0.552,0.448,1,1,1
	S26,4.552,26,4z"/>
</svg>